# xmcd
#
# Track frame offsets:
#	150
#	20207
#	36087
#	52250
#	69605
#	86737
#	105632
#	123017
#	141072
#	157735
#	188040
#	210355
#	226712
#	242892
#	259032
#	276412
#
# Disc length: 3923
#
# Revision: 1
# Processed by: cddbd v1.5.1PL0 Copyright (c) Steve Scherf et al.
# Submitted via: CDex 1.51
# Normalized: r0:DSETVAR1
#
DISCID=dc0f5110
DTITLE=Various Artist - L'Art D'écouter vol.2
DYEAR=1991
DGENRE=Français
TTITLE0=Mylène Farmer - je t'aime mélancolie
TTITLE1=Maurane - décidément
TTITLE2=François Feldman - magic'boul'vard
TTITLE3=L'Affaire Luois Trio - chacun de son côté
TTITLE4=Lio - je me tords
TTITLE5=Bernard Lavilliers - faits divers
TTITLE6=Pauline ester - une fenêtre ouverte
TTITLE7=Alain Manranche - carry on
TTITLE8=Maxime Le Forestier and Michel Rivard - bille de verre
TTITLE9=Axel Bauer - Maria
TTITLE10=Vanessa Paradis - l'amour à deux
TTITLE11=Alain Lanty - tant bien que mal
TTITLE12=Bernard Lavilliers - outremer
TTITLE13=Alain Manranche - elle et lui
TTITLE14=Alain Turban - de l'autre côté de la vie
TTITLE15=François Feldman - Magic'Boul'Vard ( instrumentale )
EXTD=YEAR: 1991
EXTT0=
EXTT1=
EXTT2=
EXTT3=
EXTT4=
EXTT5=
EXTT6=
EXTT7=
EXTT8=
EXTT9=
EXTT10=
EXTT11=
EXTT12=
EXTT13=
EXTT14=
EXTT15=
PLAYORDER=
